<mxfile host="www.draw.io" modified="2020-03-10T08:09:08.402Z" agent="Mozilla/5.0 (Windows NT 10.0; Win64; x64) AppleWebKit/537.36 (KHTML, like Gecko) Chrome/80.0.3987.122 Safari/537.36" etag="s6MdVI90pZI9G7pG0hVN" version="12.8.2" type="github">
  <diagram id="RSkM1jjQEGkXYzA2ggfZ" name="Page-1">
    <mxGraphModel dx="1865" dy="580" grid="1" gridSize="10" guides="1" tooltips="1" connect="1" arrows="1" fold="1" page="1" pageScale="1" pageWidth="827" pageHeight="1169" math="0" shadow="0">
      <root>
        <mxCell id="0" />
        <mxCell id="1" parent="0" />
        <mxCell id="0GXY6gjPffuvIRgVKfaw-151" value="" style="rounded=0;whiteSpace=wrap;html=1;fontSize=1;fontColor=#000000;" parent="1" vertex="1">
          <mxGeometry x="579" y="673.98" width="240" height="476.02" as="geometry" />
        </mxCell>
        <mxCell id="0GXY6gjPffuvIRgVKfaw-206" value="" style="rounded=0;whiteSpace=wrap;html=1;fontSize=1;fontColor=#000000;" parent="1" vertex="1">
          <mxGeometry x="60" y="1060" width="330" height="90" as="geometry" />
        </mxCell>
        <mxCell id="0GXY6gjPffuvIRgVKfaw-137" value="" style="rounded=0;whiteSpace=wrap;html=1;fontSize=1;fontColor=#000000;" parent="1" vertex="1">
          <mxGeometry x="90" y="810" width="439" height="220" as="geometry" />
        </mxCell>
        <mxCell id="0GXY6gjPffuvIRgVKfaw-136" value="" style="rounded=0;whiteSpace=wrap;html=1;fontSize=1;fontColor=#000000;" parent="1" vertex="1">
          <mxGeometry x="60" y="360" width="469" height="420" as="geometry" />
        </mxCell>
        <mxCell id="0GXY6gjPffuvIRgVKfaw-29" value="10.32.243.128" style="text;html=1;" parent="1" vertex="1">
          <mxGeometry x="151" y="961.38" width="100" height="30" as="geometry" />
        </mxCell>
        <mxCell id="0GXY6gjPffuvIRgVKfaw-57" value="&lt;font style=&quot;font-size: 8px&quot;&gt;10.32.243.114&lt;/font&gt;" style="text;html=1;fontSize=1;whiteSpace=wrap;fontColor=#000000;" parent="1" vertex="1">
          <mxGeometry x="189" y="557.51" width="80" height="30" as="geometry" />
        </mxCell>
        <mxCell id="0GXY6gjPffuvIRgVKfaw-58" value="" style="verticalLabelPosition=bottom;html=1;verticalAlign=top;strokeWidth=1;align=center;outlineConnect=0;dashed=0;outlineConnect=0;shape=mxgraph.aws3d.dataServer;strokeColor=#5E5E5E;aspect=fixed;" parent="1" vertex="1">
          <mxGeometry x="200.97" y="514" width="48.03" height="41.38" as="geometry" />
        </mxCell>
        <mxCell id="0GXY6gjPffuvIRgVKfaw-59" value="" style="verticalLabelPosition=bottom;html=1;verticalAlign=top;strokeWidth=1;align=center;outlineConnect=0;dashed=0;outlineConnect=0;shape=mxgraph.aws3d.dataServer;strokeColor=#5E5E5E;aspect=fixed;" parent="1" vertex="1">
          <mxGeometry x="200.97" y="583.51" width="48.03" height="41.38" as="geometry" />
        </mxCell>
        <mxCell id="0GXY6gjPffuvIRgVKfaw-60" value="&lt;font style=&quot;font-size: 8px&quot;&gt;10.32.243.115&lt;/font&gt;" style="text;html=1;fontSize=1;whiteSpace=wrap;fontColor=#000000;" parent="1" vertex="1">
          <mxGeometry x="189" y="624.89" width="80" height="30" as="geometry" />
        </mxCell>
        <mxCell id="0GXY6gjPffuvIRgVKfaw-61" value="&lt;font style=&quot;font-size: 8px&quot;&gt;10.32.243.116&lt;/font&gt;" style="text;html=1;fontSize=1;whiteSpace=wrap;fontColor=#000000;" parent="1" vertex="1">
          <mxGeometry x="189" y="696.27" width="80" height="30" as="geometry" />
        </mxCell>
        <mxCell id="0GXY6gjPffuvIRgVKfaw-62" value="" style="verticalLabelPosition=bottom;html=1;verticalAlign=top;strokeWidth=1;align=center;outlineConnect=0;dashed=0;outlineConnect=0;shape=mxgraph.aws3d.dataServer;strokeColor=#5E5E5E;aspect=fixed;" parent="1" vertex="1">
          <mxGeometry x="200.97" y="654.89" width="48.03" height="41.38" as="geometry" />
        </mxCell>
        <mxCell id="0GXY6gjPffuvIRgVKfaw-63" value="" style="verticalLabelPosition=bottom;html=1;verticalAlign=top;strokeWidth=1;align=center;outlineConnect=0;dashed=0;outlineConnect=0;shape=mxgraph.aws3d.dataServer;strokeColor=#5E5E5E;aspect=fixed;" parent="1" vertex="1">
          <mxGeometry x="200.97" y="720" width="48.03" height="41.38" as="geometry" />
        </mxCell>
        <mxCell id="0GXY6gjPffuvIRgVKfaw-64" value="&lt;font style=&quot;font-size: 8px&quot;&gt;10.32.243.117&lt;/font&gt;" style="text;html=1;fontSize=1;whiteSpace=wrap;fontColor=#000000;" parent="1" vertex="1">
          <mxGeometry x="189" y="759.24" width="80" height="30" as="geometry" />
        </mxCell>
        <mxCell id="0GXY6gjPffuvIRgVKfaw-68" value="&lt;font style=&quot;font-size: 8px&quot;&gt;10.32.243.108&lt;/font&gt;" style="text;html=1;fontSize=1;whiteSpace=wrap;fontColor=#000000;" parent="1" vertex="1">
          <mxGeometry x="289" y="557.51" width="80" height="30" as="geometry" />
        </mxCell>
        <mxCell id="0GXY6gjPffuvIRgVKfaw-69" value="" style="verticalLabelPosition=bottom;html=1;verticalAlign=top;strokeWidth=1;align=center;outlineConnect=0;dashed=0;outlineConnect=0;shape=mxgraph.aws3d.dataServer;strokeColor=#5E5E5E;aspect=fixed;" parent="1" vertex="1">
          <mxGeometry x="300.97" y="514" width="48.03" height="41.38" as="geometry" />
        </mxCell>
        <mxCell id="0GXY6gjPffuvIRgVKfaw-70" value="" style="verticalLabelPosition=bottom;html=1;verticalAlign=top;strokeWidth=1;align=center;outlineConnect=0;dashed=0;outlineConnect=0;shape=mxgraph.aws3d.dataServer;strokeColor=#5E5E5E;aspect=fixed;" parent="1" vertex="1">
          <mxGeometry x="300.97" y="583.51" width="48.03" height="41.38" as="geometry" />
        </mxCell>
        <mxCell id="0GXY6gjPffuvIRgVKfaw-71" value="&lt;font style=&quot;font-size: 8px&quot;&gt;10.32.243.109&lt;/font&gt;" style="text;html=1;fontSize=1;whiteSpace=wrap;fontColor=#000000;" parent="1" vertex="1">
          <mxGeometry x="289" y="624.89" width="80" height="30" as="geometry" />
        </mxCell>
        <mxCell id="0GXY6gjPffuvIRgVKfaw-72" value="&lt;font style=&quot;font-size: 8px&quot;&gt;10.32.243.118&lt;/font&gt;" style="text;html=1;fontSize=1;whiteSpace=wrap;fontColor=#000000;" parent="1" vertex="1">
          <mxGeometry x="389" y="557.51" width="80" height="30" as="geometry" />
        </mxCell>
        <mxCell id="0GXY6gjPffuvIRgVKfaw-73" value="" style="verticalLabelPosition=bottom;html=1;verticalAlign=top;strokeWidth=1;align=center;outlineConnect=0;dashed=0;outlineConnect=0;shape=mxgraph.aws3d.dataServer;strokeColor=#5E5E5E;aspect=fixed;" parent="1" vertex="1">
          <mxGeometry x="400.97" y="514" width="48.03" height="41.38" as="geometry" />
        </mxCell>
        <mxCell id="0GXY6gjPffuvIRgVKfaw-74" value="" style="verticalLabelPosition=bottom;html=1;verticalAlign=top;strokeWidth=1;align=center;outlineConnect=0;dashed=0;outlineConnect=0;shape=mxgraph.aws3d.dataServer;strokeColor=#5E5E5E;aspect=fixed;" parent="1" vertex="1">
          <mxGeometry x="400.97" y="583.51" width="48.03" height="41.38" as="geometry" />
        </mxCell>
        <mxCell id="0GXY6gjPffuvIRgVKfaw-75" value="&lt;font style=&quot;font-size: 8px&quot;&gt;10.32.243.119&lt;/font&gt;" style="text;html=1;fontSize=1;whiteSpace=wrap;fontColor=#000000;" parent="1" vertex="1">
          <mxGeometry x="389" y="624.89" width="80" height="30" as="geometry" />
        </mxCell>
        <mxCell id="0GXY6gjPffuvIRgVKfaw-76" value="" style="verticalLabelPosition=bottom;html=1;verticalAlign=top;strokeWidth=1;align=center;outlineConnect=0;dashed=0;outlineConnect=0;shape=mxgraph.aws3d.application_server;fillColor=#ECECEC;strokeColor=#5E5E5E;aspect=fixed;fontSize=1;fontColor=#000000;" parent="1" vertex="1">
          <mxGeometry x="164.98" y="370" width="48.03" height="48.42" as="geometry" />
        </mxCell>
        <mxCell id="0GXY6gjPffuvIRgVKfaw-81" value="" style="strokeWidth=2;html=1;shape=mxgraph.flowchart.annotation_1;align=left;pointerEvents=1;fontSize=1;fontColor=#000000;" parent="1" vertex="1">
          <mxGeometry x="151" y="460" width="50" height="280" as="geometry" />
        </mxCell>
        <mxCell id="0GXY6gjPffuvIRgVKfaw-83" value="" style="strokeWidth=2;html=1;shape=mxgraph.flowchart.annotation_1;align=left;pointerEvents=1;fontSize=1;fontColor=#000000;" parent="1" vertex="1">
          <mxGeometry x="151" y="530" width="50" height="140" as="geometry" />
        </mxCell>
        <mxCell id="0GXY6gjPffuvIRgVKfaw-84" value="" style="strokeWidth=2;html=1;shape=mxgraph.flowchart.annotation_1;align=left;pointerEvents=1;fontSize=1;fontColor=#000000;" parent="1" vertex="1">
          <mxGeometry x="151" y="530" width="50" height="70" as="geometry" />
        </mxCell>
        <mxCell id="0GXY6gjPffuvIRgVKfaw-85" value="" style="strokeWidth=2;html=1;shape=mxgraph.flowchart.annotation_1;align=left;pointerEvents=1;fontSize=1;fontColor=#000000;" parent="1" vertex="1">
          <mxGeometry x="269" y="460" width="30" height="70" as="geometry" />
        </mxCell>
        <mxCell id="0GXY6gjPffuvIRgVKfaw-91" style="edgeStyle=orthogonalEdgeStyle;rounded=0;orthogonalLoop=1;jettySize=auto;html=1;exitX=0.5;exitY=1;exitDx=0;exitDy=0;exitPerimeter=0;strokeWidth=2;fontSize=1;fontColor=#000000;" parent="1" source="0GXY6gjPffuvIRgVKfaw-85" target="0GXY6gjPffuvIRgVKfaw-85" edge="1">
          <mxGeometry relative="1" as="geometry" />
        </mxCell>
        <mxCell id="0GXY6gjPffuvIRgVKfaw-96" value="" style="strokeWidth=2;html=1;shape=mxgraph.flowchart.annotation_1;align=left;pointerEvents=1;fontSize=1;fontColor=#000000;" parent="1" vertex="1">
          <mxGeometry x="269" y="530" width="30" height="70" as="geometry" />
        </mxCell>
        <mxCell id="0GXY6gjPffuvIRgVKfaw-97" value="" style="strokeWidth=2;html=1;shape=mxgraph.flowchart.annotation_1;align=left;pointerEvents=1;fontSize=1;fontColor=#000000;" parent="1" vertex="1">
          <mxGeometry x="370.97" y="460" width="30" height="70" as="geometry" />
        </mxCell>
        <mxCell id="0GXY6gjPffuvIRgVKfaw-98" value="" style="strokeWidth=2;html=1;shape=mxgraph.flowchart.annotation_1;align=left;pointerEvents=1;fontSize=1;fontColor=#000000;" parent="1" vertex="1">
          <mxGeometry x="370.97" y="530" width="30" height="70" as="geometry" />
        </mxCell>
        <mxCell id="0GXY6gjPffuvIRgVKfaw-99" value="" style="verticalLabelPosition=bottom;html=1;verticalAlign=top;strokeWidth=1;align=center;outlineConnect=0;dashed=0;outlineConnect=0;shape=mxgraph.aws3d.application_server;fillColor=#ECECEC;strokeColor=#5E5E5E;aspect=fixed;fontSize=1;fontColor=#000000;" parent="1" vertex="1">
          <mxGeometry x="260.96999999999997" y="370" width="48.03" height="48.42" as="geometry" />
        </mxCell>
        <mxCell id="0GXY6gjPffuvIRgVKfaw-100" value="" style="verticalLabelPosition=bottom;html=1;verticalAlign=top;strokeWidth=1;align=center;outlineConnect=0;dashed=0;outlineConnect=0;shape=mxgraph.aws3d.application_server;fillColor=#ECECEC;strokeColor=#5E5E5E;aspect=fixed;fontSize=1;fontColor=#000000;" parent="1" vertex="1">
          <mxGeometry x="344.98" y="370" width="48.03" height="48.42" as="geometry" />
        </mxCell>
        <mxCell id="0GXY6gjPffuvIRgVKfaw-101" value="" style="verticalLabelPosition=bottom;html=1;verticalAlign=top;strokeWidth=1;align=center;outlineConnect=0;dashed=0;outlineConnect=0;shape=mxgraph.aws3d.application_server;fillColor=#ECECEC;strokeColor=#5E5E5E;aspect=fixed;fontSize=1;fontColor=#000000;" parent="1" vertex="1">
          <mxGeometry x="441.97999999999996" y="370" width="48.03" height="48.42" as="geometry" />
        </mxCell>
        <mxCell id="0GXY6gjPffuvIRgVKfaw-102" value="&lt;font style=&quot;font-size: 8px&quot;&gt;10.32.243.110&lt;/font&gt;" style="text;html=1;fontSize=1;whiteSpace=wrap;fontColor=#000000;" parent="1" vertex="1">
          <mxGeometry x="149" y="418.42" width="80" height="30" as="geometry" />
        </mxCell>
        <mxCell id="0GXY6gjPffuvIRgVKfaw-103" value="&lt;font style=&quot;font-size: 8px&quot;&gt;10.32.243.111&lt;/font&gt;" style="text;html=1;fontSize=1;whiteSpace=wrap;fontColor=#000000;" parent="1" vertex="1">
          <mxGeometry x="244" y="418.42" width="80" height="30" as="geometry" />
        </mxCell>
        <mxCell id="0GXY6gjPffuvIRgVKfaw-104" value="&lt;font style=&quot;font-size: 8px&quot;&gt;10.32.243.112&lt;/font&gt;" style="text;html=1;fontSize=1;whiteSpace=wrap;fontColor=#000000;" parent="1" vertex="1">
          <mxGeometry x="329" y="418.42" width="80" height="30" as="geometry" />
        </mxCell>
        <mxCell id="0GXY6gjPffuvIRgVKfaw-105" value="&lt;font style=&quot;font-size: 8px&quot;&gt;10.32.243.113&lt;/font&gt;" style="text;html=1;fontSize=1;whiteSpace=wrap;fontColor=#000000;" parent="1" vertex="1">
          <mxGeometry x="419" y="418.42" width="80" height="30" as="geometry" />
        </mxCell>
        <mxCell id="0GXY6gjPffuvIRgVKfaw-106" value="" style="strokeWidth=2;html=1;shape=mxgraph.flowchart.annotation_1;align=left;pointerEvents=1;fontSize=1;fontColor=#000000;rotation=-90;" parent="1" vertex="1">
          <mxGeometry x="217.51" y="391.51" width="38.99" height="98" as="geometry" />
        </mxCell>
        <mxCell id="0GXY6gjPffuvIRgVKfaw-110" value="" style="endArrow=none;html=1;fontSize=1;fontColor=#000000;strokeWidth=2;" parent="1" edge="1">
          <mxGeometry width="50" height="50" relative="1" as="geometry">
            <mxPoint x="109" y="460" as="sourcePoint" />
            <mxPoint x="489" y="460" as="targetPoint" />
          </mxGeometry>
        </mxCell>
        <mxCell id="0GXY6gjPffuvIRgVKfaw-111" value="" style="verticalLabelPosition=bottom;html=1;verticalAlign=top;strokeWidth=1;align=center;outlineConnect=0;dashed=0;outlineConnect=0;shape=mxgraph.aws3d.dataCenter;strokeColor=#5E5E5E;aspect=fixed;fontSize=1;fontColor=#000000;" parent="1" vertex="1">
          <mxGeometry x="171.84" y="1077" width="43.31" height="50" as="geometry" />
        </mxCell>
        <mxCell id="0GXY6gjPffuvIRgVKfaw-112" value="" style="endArrow=none;html=1;fontSize=1;fontColor=#000000;strokeWidth=2;exitX=0;exitY=0;exitDx=0;exitDy=0;exitPerimeter=0;" parent="1" source="0GXY6gjPffuvIRgVKfaw-122" edge="1">
          <mxGeometry width="50" height="50" relative="1" as="geometry">
            <mxPoint x="172.98" y="890" as="sourcePoint" />
            <mxPoint x="477" y="890" as="targetPoint" />
          </mxGeometry>
        </mxCell>
        <mxCell id="0GXY6gjPffuvIRgVKfaw-113" value="" style="verticalLabelPosition=bottom;html=1;verticalAlign=top;strokeWidth=1;align=center;outlineConnect=0;dashed=0;outlineConnect=0;shape=mxgraph.aws3d.application_server;fillColor=#ECECEC;strokeColor=#5E5E5E;aspect=fixed;fontSize=1;fontColor=#000000;" parent="1" vertex="1">
          <mxGeometry x="213.00999999999996" y="814.73" width="48.03" height="48.42" as="geometry" />
        </mxCell>
        <mxCell id="0GXY6gjPffuvIRgVKfaw-114" value="" style="verticalLabelPosition=bottom;html=1;verticalAlign=top;strokeWidth=1;align=center;outlineConnect=0;dashed=0;outlineConnect=0;shape=mxgraph.aws3d.application_server;fillColor=#ECECEC;strokeColor=#5E5E5E;aspect=fixed;fontSize=1;fontColor=#000000;" parent="1" vertex="1">
          <mxGeometry x="336.94" y="814.73" width="48.03" height="48.42" as="geometry" />
        </mxCell>
        <mxCell id="0GXY6gjPffuvIRgVKfaw-115" value="" style="verticalLabelPosition=bottom;html=1;verticalAlign=top;strokeWidth=1;align=center;outlineConnect=0;dashed=0;outlineConnect=0;shape=mxgraph.aws3d.dataServer;strokeColor=#5E5E5E;aspect=fixed;" parent="1" vertex="1">
          <mxGeometry x="169.48" y="920" width="48.03" height="41.38" as="geometry" />
        </mxCell>
        <mxCell id="0GXY6gjPffuvIRgVKfaw-116" value="" style="verticalLabelPosition=bottom;html=1;verticalAlign=top;strokeWidth=1;align=center;outlineConnect=0;dashed=0;outlineConnect=0;shape=mxgraph.aws3d.dataServer;strokeColor=#5E5E5E;aspect=fixed;" parent="1" vertex="1">
          <mxGeometry x="288.99999999999994" y="920" width="48.03" height="41.38" as="geometry" />
        </mxCell>
        <mxCell id="0GXY6gjPffuvIRgVKfaw-117" value="" style="verticalLabelPosition=bottom;html=1;verticalAlign=top;strokeWidth=1;align=center;outlineConnect=0;dashed=0;outlineConnect=0;shape=mxgraph.aws3d.dataServer;strokeColor=#5E5E5E;aspect=fixed;" parent="1" vertex="1">
          <mxGeometry x="418.99999999999994" y="920" width="48.03" height="41.38" as="geometry" />
        </mxCell>
        <mxCell id="0GXY6gjPffuvIRgVKfaw-121" value="" style="strokeWidth=2;html=1;shape=mxgraph.flowchart.annotation_1;align=left;pointerEvents=1;fontSize=1;fontColor=#000000;rotation=-90;" parent="1" vertex="1">
          <mxGeometry x="297.14" y="810.76" width="21.59" height="137.88" as="geometry" />
        </mxCell>
        <mxCell id="0GXY6gjPffuvIRgVKfaw-122" value="" style="strokeWidth=2;html=1;shape=mxgraph.flowchart.annotation_1;align=left;pointerEvents=1;fontSize=1;fontColor=#000000;rotation=90;" parent="1" vertex="1">
          <mxGeometry x="360.4" y="843.5" width="31.59" height="124.88" as="geometry" />
        </mxCell>
        <mxCell id="0GXY6gjPffuvIRgVKfaw-123" value="" style="endArrow=none;html=1;fontSize=1;fontColor=#000000;strokeWidth=2;entryX=0;entryY=0.5;entryDx=0;entryDy=0;entryPerimeter=0;" parent="1" target="0GXY6gjPffuvIRgVKfaw-121" edge="1">
          <mxGeometry width="50" height="50" relative="1" as="geometry">
            <mxPoint x="172.98000000000002" y="890" as="sourcePoint" />
            <mxPoint x="477" y="890" as="targetPoint" />
          </mxGeometry>
        </mxCell>
        <mxCell id="0GXY6gjPffuvIRgVKfaw-124" value="" style="strokeWidth=2;html=1;shape=mxgraph.flowchart.annotation_1;align=left;pointerEvents=1;fontSize=1;fontColor=#000000;rotation=90;" parent="1" vertex="1">
          <mxGeometry x="239.6" y="847.69" width="31.59" height="116.5" as="geometry" />
        </mxCell>
        <mxCell id="0GXY6gjPffuvIRgVKfaw-125" value="10.32.243.56" style="text;html=1;" parent="1" vertex="1">
          <mxGeometry x="189" y="853.69" width="100" height="30" as="geometry" />
        </mxCell>
        <mxCell id="0GXY6gjPffuvIRgVKfaw-126" value="10.32.243.124" style="text;html=1;" parent="1" vertex="1">
          <mxGeometry x="320.90000000000003" y="853.69" width="100" height="30" as="geometry" />
        </mxCell>
        <mxCell id="0GXY6gjPffuvIRgVKfaw-127" value="10.32.243.129" style="text;html=1;" parent="1" vertex="1">
          <mxGeometry x="267.04" y="961.38" width="100" height="30" as="geometry" />
        </mxCell>
        <mxCell id="0GXY6gjPffuvIRgVKfaw-128" value="10.32.243.103" style="text;html=1;" parent="1" vertex="1">
          <mxGeometry x="401" y="961.38" width="100" height="30" as="geometry" />
        </mxCell>
        <mxCell id="0GXY6gjPffuvIRgVKfaw-129" value="10.32.242.[176,25,26]&lt;br&gt;10.32.243.[5-7,88-97]" style="text;html=1;" parent="1" vertex="1">
          <mxGeometry x="619.98" y="1087" width="100" height="30" as="geometry" />
        </mxCell>
        <mxCell id="0GXY6gjPffuvIRgVKfaw-130" value="" style="verticalLabelPosition=bottom;html=1;verticalAlign=top;strokeWidth=1;align=center;outlineConnect=0;dashed=0;outlineConnect=0;shape=mxgraph.aws3d.dataCenter;strokeColor=#5E5E5E;aspect=fixed;fontSize=1;fontColor=#000000;" parent="1" vertex="1">
          <mxGeometry x="272.2" y="1077" width="43.31" height="50" as="geometry" />
        </mxCell>
        <mxCell id="0GXY6gjPffuvIRgVKfaw-143" value="" style="verticalLabelPosition=bottom;html=1;verticalAlign=top;strokeWidth=1;align=center;outlineConnect=0;dashed=0;outlineConnect=0;shape=mxgraph.aws3d.arrowSE;fillColor=#000000;aspect=fixed;fontSize=1;fontColor=#000000;rotation=30;" parent="1" vertex="1">
          <mxGeometry x="300.96" y="784.09" width="32.44" height="18.54" as="geometry" />
        </mxCell>
        <mxCell id="0GXY6gjPffuvIRgVKfaw-152" value="" style="rounded=0;whiteSpace=wrap;html=1;fontSize=1;fontColor=#000000;" parent="1" vertex="1">
          <mxGeometry x="60" y="220" width="469" height="101.58" as="geometry" />
        </mxCell>
        <mxCell id="0GXY6gjPffuvIRgVKfaw-153" value="" style="verticalLabelPosition=bottom;html=1;verticalAlign=top;strokeWidth=1;align=center;outlineConnect=0;dashed=0;outlineConnect=0;shape=mxgraph.aws3d.application_server;fillColor=#ECECEC;strokeColor=#5E5E5E;aspect=fixed;fontSize=1;fontColor=#000000;" parent="1" vertex="1">
          <mxGeometry x="171.84" y="240" width="48.03" height="48.42" as="geometry" />
        </mxCell>
        <mxCell id="0GXY6gjPffuvIRgVKfaw-154" value="" style="verticalLabelPosition=bottom;html=1;verticalAlign=top;strokeWidth=1;align=center;outlineConnect=0;dashed=0;outlineConnect=0;shape=mxgraph.aws3d.application_server;fillColor=#ECECEC;strokeColor=#5E5E5E;aspect=fixed;fontSize=1;fontColor=#000000;" parent="1" vertex="1">
          <mxGeometry x="252.93999999999997" y="240" width="48.03" height="48.42" as="geometry" />
        </mxCell>
        <mxCell id="0GXY6gjPffuvIRgVKfaw-155" value="" style="verticalLabelPosition=bottom;html=1;verticalAlign=top;strokeWidth=1;align=center;outlineConnect=0;dashed=0;outlineConnect=0;shape=mxgraph.aws3d.application_server;fillColor=#f8cecc;strokeColor=#b85450;aspect=fixed;fontSize=1;" parent="1" vertex="1">
          <mxGeometry x="435.99999999999994" y="240" width="48.03" height="48.42" as="geometry" />
        </mxCell>
        <mxCell id="0GXY6gjPffuvIRgVKfaw-156" value="" style="verticalLabelPosition=bottom;html=1;verticalAlign=top;strokeWidth=1;align=center;outlineConnect=0;dashed=0;outlineConnect=0;shape=mxgraph.aws3d.arrowSW;fillColor=#000000;aspect=fixed;fontSize=1;fontColor=#000000;rotation=-30;" parent="1" vertex="1">
          <mxGeometry x="285.33" y="333.12" width="30.77" height="17.58" as="geometry" />
        </mxCell>
        <mxCell id="0GXY6gjPffuvIRgVKfaw-157" value="&lt;font style=&quot;font-size: 8px&quot;&gt;10.32.243.164&lt;/font&gt;" style="text;html=1;fontSize=1;whiteSpace=wrap;fontColor=#000000;" parent="1" vertex="1">
          <mxGeometry x="155.85999999999999" y="288.42" width="80" height="30" as="geometry" />
        </mxCell>
        <mxCell id="0GXY6gjPffuvIRgVKfaw-158" value="&lt;font style=&quot;font-size: 8px&quot;&gt;10.32.243.165&lt;/font&gt;" style="text;html=1;fontSize=1;whiteSpace=wrap;fontColor=#000000;" parent="1" vertex="1">
          <mxGeometry x="238.73000000000002" y="288.42" width="80" height="30" as="geometry" />
        </mxCell>
        <mxCell id="0GXY6gjPffuvIRgVKfaw-160" value="&lt;font style=&quot;font-size: 8px&quot;&gt;10.32.243.166&lt;/font&gt;" style="text;html=1;fontSize=1;whiteSpace=wrap;fontColor=#000000;" parent="1" vertex="1">
          <mxGeometry x="409" y="288.42" width="80" height="30" as="geometry" />
        </mxCell>
        <mxCell id="0GXY6gjPffuvIRgVKfaw-161" value="" style="rounded=0;whiteSpace=wrap;html=1;fontSize=1;fontColor=#000000;" parent="1" vertex="1">
          <mxGeometry x="98.02" y="70" width="290.98" height="70" as="geometry" />
        </mxCell>
        <mxCell id="0GXY6gjPffuvIRgVKfaw-162" value="" style="rounded=0;whiteSpace=wrap;html=1;fontSize=1;fontColor=#000000;" parent="1" vertex="1">
          <mxGeometry x="429" y="70" width="290.98" height="70" as="geometry" />
        </mxCell>
        <mxCell id="0GXY6gjPffuvIRgVKfaw-163" value="小程序" style="verticalLabelPosition=bottom;html=1;verticalAlign=top;strokeWidth=1;align=center;outlineConnect=0;dashed=0;outlineConnect=0;shape=mxgraph.aws3d.application2;fillColor=#86E83A;strokeColor=#B0F373;aspect=fixed;fontSize=1;fontColor=#000000;" parent="1" vertex="1">
          <mxGeometry x="142.20999999999998" y="80" width="46.79" height="40" as="geometry" />
        </mxCell>
        <mxCell id="0GXY6gjPffuvIRgVKfaw-164" value="地铁APP" style="verticalLabelPosition=bottom;html=1;verticalAlign=top;strokeWidth=1;align=center;outlineConnect=0;dashed=0;outlineConnect=0;shape=mxgraph.aws3d.application2;fillColor=#86E83A;strokeColor=#B0F373;aspect=fixed;fontSize=1;fontColor=#000000;" parent="1" vertex="1">
          <mxGeometry x="286.61" y="80" width="46.79" height="40" as="geometry" />
        </mxCell>
        <mxCell id="0GXY6gjPffuvIRgVKfaw-165" value="物联平台" style="verticalLabelPosition=bottom;html=1;verticalAlign=top;strokeWidth=1;align=center;outlineConnect=0;dashed=0;outlineConnect=0;shape=mxgraph.aws3d.application;fillColor=#4286c5;strokeColor=#57A2D8;aspect=fixed;fontSize=1;fontColor=#000000;" parent="1" vertex="1">
          <mxGeometry x="446.75" y="74" width="43.26" height="48" as="geometry" />
        </mxCell>
        <mxCell id="0GXY6gjPffuvIRgVKfaw-166" value="创互" style="verticalLabelPosition=bottom;html=1;verticalAlign=top;strokeWidth=1;align=center;outlineConnect=0;dashed=0;outlineConnect=0;shape=mxgraph.aws3d.application;fillColor=#4286c5;strokeColor=#57A2D8;aspect=fixed;fontSize=1;fontColor=#000000;" parent="1" vertex="1">
          <mxGeometry x="515.74" y="74" width="43.26" height="48" as="geometry" />
        </mxCell>
        <mxCell id="0GXY6gjPffuvIRgVKfaw-167" value="腾讯地图" style="verticalLabelPosition=bottom;html=1;verticalAlign=top;strokeWidth=1;align=center;outlineConnect=0;dashed=0;outlineConnect=0;shape=mxgraph.aws3d.application;fillColor=#4286c5;strokeColor=#57A2D8;aspect=fixed;fontSize=1;fontColor=#000000;" parent="1" vertex="1">
          <mxGeometry x="657.37" y="74" width="43.26" height="48" as="geometry" />
        </mxCell>
        <mxCell id="0GXY6gjPffuvIRgVKfaw-168" value="语音助手" style="verticalLabelPosition=bottom;html=1;verticalAlign=top;strokeWidth=1;align=center;outlineConnect=0;dashed=0;outlineConnect=0;shape=mxgraph.aws3d.application;fillColor=#4286c5;strokeColor=#57A2D8;aspect=fixed;fontSize=1;fontColor=#000000;" parent="1" vertex="1">
          <mxGeometry x="589" y="74" width="43.26" height="48" as="geometry" />
        </mxCell>
        <mxCell id="0GXY6gjPffuvIRgVKfaw-170" value="" style="verticalLabelPosition=bottom;html=1;verticalAlign=top;strokeWidth=1;align=center;outlineConnect=0;dashed=0;outlineConnect=0;shape=mxgraph.aws3d.snapshot;fillColor=#FF3333;strokeColor=#57A2D8;aspect=fixed;fontSize=1;fontColor=#000000;" parent="1" vertex="1">
          <mxGeometry x="328.3" y="160" width="76.67" height="50" as="geometry" />
        </mxCell>
        <mxCell id="0GXY6gjPffuvIRgVKfaw-171" value="" style="verticalLabelPosition=bottom;html=1;verticalAlign=top;strokeWidth=1;align=center;outlineConnect=0;dashed=0;outlineConnect=0;shape=mxgraph.aws3d.arrowSE;fillColor=#000000;aspect=fixed;fontSize=1;fontColor=#000000;" parent="1" vertex="1">
          <mxGeometry x="277.96" y="150" width="45.5" height="26" as="geometry" />
        </mxCell>
        <mxCell id="0GXY6gjPffuvIRgVKfaw-172" value="" style="verticalLabelPosition=bottom;html=1;verticalAlign=top;strokeWidth=1;align=center;outlineConnect=0;dashed=0;outlineConnect=0;shape=mxgraph.aws3d.arrowSW;fillColor=#f8cecc;aspect=fixed;fontSize=1;strokeColor=#b85450;" parent="1" vertex="1">
          <mxGeometry x="406.25" y="150" width="45.5" height="26" as="geometry" />
        </mxCell>
        <mxCell id="0GXY6gjPffuvIRgVKfaw-173" value="" style="verticalLabelPosition=bottom;html=1;verticalAlign=top;strokeWidth=1;align=center;outlineConnect=0;dashed=0;outlineConnect=0;shape=mxgraph.aws3d.arrowSW;fillColor=#000000;aspect=fixed;fontSize=1;fontColor=#000000;" parent="1" vertex="1">
          <mxGeometry x="314.31" y="200" width="35" height="20" as="geometry" />
        </mxCell>
        <mxCell id="0GXY6gjPffuvIRgVKfaw-174" value="" style="verticalLabelPosition=bottom;html=1;verticalAlign=top;strokeWidth=1;align=center;outlineConnect=0;dashed=0;outlineConnect=0;shape=mxgraph.aws3d.arrowSE;fillColor=#f8cecc;aspect=fixed;fontSize=1;strokeColor=#b85450;" parent="1" vertex="1">
          <mxGeometry x="383.5" y="210" width="52.5" height="30" as="geometry" />
        </mxCell>
        <mxCell id="0GXY6gjPffuvIRgVKfaw-177" value="" style="strokeWidth=2;html=1;shape=mxgraph.flowchart.annotation_1;align=left;pointerEvents=1;fillColor=#f8cecc;fontSize=1;rotation=-180;strokeColor=#b85450;" parent="1" vertex="1">
          <mxGeometry x="489" y="270" width="90" height="300" as="geometry" />
        </mxCell>
        <mxCell id="0GXY6gjPffuvIRgVKfaw-178" value="" style="strokeWidth=2;html=1;shape=mxgraph.flowchart.annotation_1;align=left;pointerEvents=1;fillColor=#f8cecc;fontSize=1;rotation=-180;strokeColor=#b85450;" parent="1" vertex="1">
          <mxGeometry x="449.03" y="530" width="40.98" height="70" as="geometry" />
        </mxCell>
        <mxCell id="0GXY6gjPffuvIRgVKfaw-179" value="" style="strokeWidth=2;html=1;shape=mxgraph.flowchart.annotation_1;align=left;pointerEvents=1;fillColor=#f8cecc;fontSize=1;rotation=-180;strokeColor=#b85450;" parent="1" vertex="1">
          <mxGeometry x="489.98" y="570.48" width="50" height="431.2" as="geometry" />
        </mxCell>
        <mxCell id="0GXY6gjPffuvIRgVKfaw-182" value="" style="shape=partialRectangle;whiteSpace=wrap;html=1;top=0;left=0;fillColor=none;strokeWidth=2;fontSize=1;rotation=90;strokeColor=#b85450;" parent="1" vertex="1">
          <mxGeometry x="448.89" y="951.09" width="40" height="61.21" as="geometry" />
        </mxCell>
        <mxCell id="0GXY6gjPffuvIRgVKfaw-184" value="" style="shape=partialRectangle;whiteSpace=wrap;html=1;top=0;left=0;fillColor=none;strokeWidth=2;fontSize=1;rotation=90;strokeColor=#b85450;" parent="1" vertex="1">
          <mxGeometry x="350.9" y="913.39" width="40" height="136.61" as="geometry" />
        </mxCell>
        <mxCell id="0GXY6gjPffuvIRgVKfaw-185" value="" style="shape=partialRectangle;whiteSpace=wrap;html=1;top=0;left=0;fillColor=none;strokeWidth=2;fontSize=1;rotation=90;strokeColor=#b85450;" parent="1" vertex="1">
          <mxGeometry x="234.99999999999997" y="913.39" width="40" height="136.61" as="geometry" />
        </mxCell>
        <mxCell id="0GXY6gjPffuvIRgVKfaw-187" value="应用后台微服务" style="text;html=1;strokeColor=none;fillColor=none;align=center;verticalAlign=middle;whiteSpace=wrap;rounded=0;fontSize=1;fontColor=#000000;" parent="1" vertex="1">
          <mxGeometry x="161" y="460" width="40" height="60" as="geometry" />
        </mxCell>
        <mxCell id="0GXY6gjPffuvIRgVKfaw-188" value="定时服务" style="text;html=1;strokeColor=none;fillColor=none;align=center;verticalAlign=middle;whiteSpace=wrap;rounded=0;fontSize=1;fontColor=#000000;" parent="1" vertex="1">
          <mxGeometry x="284" y="460" width="40" height="60" as="geometry" />
        </mxCell>
        <mxCell id="0GXY6gjPffuvIRgVKfaw-189" value="推送服务" style="text;html=1;strokeColor=none;fillColor=none;align=center;verticalAlign=middle;whiteSpace=wrap;rounded=0;fontSize=1;fontColor=#000000;" parent="1" vertex="1">
          <mxGeometry x="401.98" y="454" width="40" height="60" as="geometry" />
        </mxCell>
        <mxCell id="0GXY6gjPffuvIRgVKfaw-190" value="代理服务" style="text;html=1;strokeColor=none;fillColor=none;align=center;verticalAlign=middle;whiteSpace=wrap;rounded=0;fontSize=1;fontColor=#000000;" parent="1" vertex="1">
          <mxGeometry x="109" y="370" width="40" height="60" as="geometry" />
        </mxCell>
        <mxCell id="0GXY6gjPffuvIRgVKfaw-191" value="代理服务" style="text;html=1;strokeColor=none;fillColor=none;align=center;verticalAlign=middle;whiteSpace=wrap;rounded=0;fontSize=1;fontColor=#000000;" parent="1" vertex="1">
          <mxGeometry x="142.21" y="823.69" width="40" height="60" as="geometry" />
        </mxCell>
        <mxCell id="0GXY6gjPffuvIRgVKfaw-192" value="代理服务" style="text;html=1;strokeColor=none;fillColor=none;align=center;verticalAlign=middle;whiteSpace=wrap;rounded=0;fontSize=1;fontColor=#000000;" parent="1" vertex="1">
          <mxGeometry x="115.86" y="240" width="40" height="60" as="geometry" />
        </mxCell>
        <mxCell id="0GXY6gjPffuvIRgVKfaw-198" value="&lt;b&gt;平台层&lt;/b&gt;" style="text;html=1;strokeColor=none;fillColor=none;align=center;verticalAlign=middle;whiteSpace=wrap;rounded=1;fontSize=6;fontColor=#3333FF;flipV=0;shadow=1;comic=1;glass=1;" parent="1" vertex="1">
          <mxGeometry x="98.02" y="883.6899999999999" width="40" height="90" as="geometry" />
        </mxCell>
        <mxCell id="0GXY6gjPffuvIRgVKfaw-199" value="&lt;b&gt;应用后台&lt;/b&gt;" style="text;html=1;strokeColor=none;fillColor=none;align=center;verticalAlign=middle;whiteSpace=wrap;rounded=1;fontSize=6;fontColor=#3333FF;flipV=0;shadow=1;comic=1;glass=1;" parent="1" vertex="1">
          <mxGeometry x="69" y="570.4799999999999" width="40" height="90" as="geometry" />
        </mxCell>
        <mxCell id="0GXY6gjPffuvIRgVKfaw-200" value="综合管理i平台" style="text;html=1;strokeColor=none;fillColor=none;align=center;verticalAlign=middle;whiteSpace=wrap;rounded=0;fontSize=1;fontColor=#000000;" parent="1" vertex="1">
          <mxGeometry x="229" y="878.62" width="144.14" height="60" as="geometry" />
        </mxCell>
        <mxCell id="0GXY6gjPffuvIRgVKfaw-202" value="&lt;b&gt;公元前DMZ&lt;/b&gt;" style="text;html=1;strokeColor=none;fillColor=none;align=center;verticalAlign=middle;whiteSpace=wrap;rounded=1;fontSize=6;fontColor=#3333FF;flipV=0;shadow=1;comic=1;glass=1;" parent="1" vertex="1">
          <mxGeometry x="69" y="231.57999999999993" width="40" height="90" as="geometry" />
        </mxCell>
        <mxCell id="0GXY6gjPffuvIRgVKfaw-203" value="" style="strokeWidth=2;html=1;shape=mxgraph.flowchart.annotation_1;align=left;pointerEvents=1;fontSize=1;fontColor=#000000;rotation=-90;" parent="1" vertex="1">
          <mxGeometry x="397.01" y="391.51" width="38.99" height="98" as="geometry" />
        </mxCell>
        <mxCell id="0GXY6gjPffuvIRgVKfaw-204" value="10.32.241.90" style="text;html=1;" parent="1" vertex="1">
          <mxGeometry x="256.5" y="1127" width="100" height="30" as="geometry" />
        </mxCell>
        <mxCell id="0GXY6gjPffuvIRgVKfaw-205" value="防火墙" style="text;html=1;strokeColor=none;fillColor=none;align=center;verticalAlign=middle;whiteSpace=wrap;rounded=0;fontSize=1;fontColor=#000000;" parent="1" vertex="1">
          <mxGeometry x="281.07" y="160" width="40" height="60" as="geometry" />
        </mxCell>
        <mxCell id="0GXY6gjPffuvIRgVKfaw-207" value="&lt;b&gt;Mysql数据库&lt;/b&gt;" style="text;html=1;strokeColor=none;fillColor=none;align=center;verticalAlign=middle;whiteSpace=wrap;rounded=1;fontSize=6;fontColor=#3333FF;flipV=0;shadow=1;comic=1;glass=1;" parent="1" vertex="1">
          <mxGeometry x="98.01999999999998" y="1057" width="40" height="90" as="geometry" />
        </mxCell>
        <mxCell id="0GXY6gjPffuvIRgVKfaw-208" value="" style="verticalLabelPosition=bottom;html=1;verticalAlign=top;strokeWidth=1;align=center;outlineConnect=0;dashed=0;outlineConnect=0;shape=mxgraph.aws3d.arrowSE;fillColor=#000000;aspect=fixed;rounded=1;shadow=1;glass=1;comic=1;fontSize=6;fontColor=#3333FF;rotation=60;" parent="1" vertex="1">
          <mxGeometry x="-48.04" y="851.67" width="231.54" height="132.31" as="geometry" />
        </mxCell>
        <mxCell id="0GXY6gjPffuvIRgVKfaw-209" value="" style="verticalLabelPosition=bottom;html=1;verticalAlign=top;strokeWidth=1;align=center;outlineConnect=0;dashed=0;outlineConnect=0;shape=mxgraph.aws3d.arrowSE;fillColor=#000000;aspect=fixed;fontSize=1;fontColor=#000000;rotation=30;" parent="1" vertex="1">
          <mxGeometry x="216.56" y="1030" width="32.44" height="18.54" as="geometry" />
        </mxCell>
        <mxCell id="0GXY6gjPffuvIRgVKfaw-210" value="&lt;b&gt;大数据平台&lt;/b&gt;" style="text;html=1;strokeColor=none;fillColor=none;align=center;verticalAlign=middle;whiteSpace=wrap;rounded=1;fontSize=6;fontColor=#3333FF;flipV=0;shadow=1;comic=1;glass=1;" parent="1" vertex="1">
          <mxGeometry x="590.63" y="680" width="40" height="90" as="geometry" />
        </mxCell>
        <mxCell id="0GXY6gjPffuvIRgVKfaw-214" value="" style="verticalLabelPosition=bottom;html=1;verticalAlign=top;strokeWidth=1;align=center;outlineConnect=0;dashed=0;outlineConnect=0;shape=mxgraph.aws3d.dataServer;strokeColor=#5E5E5E;aspect=fixed;" parent="1" vertex="1">
          <mxGeometry x="625.63" y="1040" width="46.43" height="40" as="geometry" />
        </mxCell>
        <mxCell id="0GXY6gjPffuvIRgVKfaw-215" value="" style="verticalLabelPosition=bottom;html=1;verticalAlign=top;strokeWidth=1;align=center;outlineConnect=0;dashed=0;outlineConnect=0;shape=mxgraph.aws3d.dataServer;strokeColor=#5E5E5E;aspect=fixed;" parent="1" vertex="1">
          <mxGeometry x="719.98" y="1040" width="48.03" height="41.38" as="geometry" />
        </mxCell>
        <mxCell id="0GXY6gjPffuvIRgVKfaw-216" value="........." style="text;html=1;strokeColor=none;fillColor=none;align=center;verticalAlign=middle;whiteSpace=wrap;rounded=0;fontSize=1;fontColor=#000000;" parent="1" vertex="1">
          <mxGeometry x="679.9799999999999" y="1031.46" width="40" height="60" as="geometry" />
        </mxCell>
        <mxCell id="0GXY6gjPffuvIRgVKfaw-217" value="" style="verticalLabelPosition=bottom;html=1;verticalAlign=top;strokeWidth=1;align=center;outlineConnect=0;dashed=0;outlineConnect=0;shape=mxgraph.aws3d.dataServer;strokeColor=#5E5E5E;aspect=fixed;" parent="1" vertex="1">
          <mxGeometry x="710" y="782.3100000000001" width="48.03" height="41.38" as="geometry" />
        </mxCell>
        <mxCell id="0GXY6gjPffuvIRgVKfaw-218" value="" style="verticalLabelPosition=bottom;html=1;verticalAlign=top;strokeWidth=1;align=center;outlineConnect=0;dashed=0;outlineConnect=0;shape=mxgraph.aws3d.dataServer;strokeColor=#5E5E5E;aspect=fixed;" parent="1" vertex="1">
          <mxGeometry x="710" y="859.01" width="48.03" height="41.38" as="geometry" />
        </mxCell>
        <mxCell id="0GXY6gjPffuvIRgVKfaw-219" value="" style="verticalLabelPosition=bottom;html=1;verticalAlign=top;strokeWidth=1;align=center;outlineConnect=0;dashed=0;outlineConnect=0;shape=mxgraph.aws3d.dataServer;strokeColor=#5E5E5E;aspect=fixed;" parent="1" vertex="1">
          <mxGeometry x="710" y="932.31" width="48.03" height="41.38" as="geometry" />
        </mxCell>
        <mxCell id="0GXY6gjPffuvIRgVKfaw-222" value="10.32.243.125" style="text;html=1;" parent="1" vertex="1">
          <mxGeometry x="692.6899999999999" y="823.94" width="100" height="30" as="geometry" />
        </mxCell>
        <mxCell id="0GXY6gjPffuvIRgVKfaw-223" value="10.32.243.126" style="text;html=1;" parent="1" vertex="1">
          <mxGeometry x="692.6899999999999" y="900.3900000000001" width="100" height="30" as="geometry" />
        </mxCell>
        <mxCell id="0GXY6gjPffuvIRgVKfaw-224" value="10.32.243.127" style="text;html=1;" parent="1" vertex="1">
          <mxGeometry x="692.6899999999999" y="973.69" width="100" height="30" as="geometry" />
        </mxCell>
        <mxCell id="0GXY6gjPffuvIRgVKfaw-226" value="" style="endArrow=none;html=1;strokeWidth=2;fontSize=6;fontColor=#3333FF;" parent="1" edge="1">
          <mxGeometry width="50" height="50" relative="1" as="geometry">
            <mxPoint x="612.01" y="1020" as="sourcePoint" />
            <mxPoint x="768.01" y="1020" as="targetPoint" />
          </mxGeometry>
        </mxCell>
        <mxCell id="0GXY6gjPffuvIRgVKfaw-229" value="" style="shape=partialRectangle;whiteSpace=wrap;html=1;top=0;bottom=0;fillColor=none;rounded=1;shadow=0;glass=1;comic=0;labelBackgroundColor=#ffffff;strokeWidth=2;fontSize=6;fontColor=#3333FF;align=center;" parent="1" vertex="1">
          <mxGeometry x="650" y="1020" width="100.63" height="20" as="geometry" />
        </mxCell>
        <mxCell id="0GXY6gjPffuvIRgVKfaw-230" value="" style="endArrow=none;html=1;strokeWidth=2;fontSize=6;fontColor=#3333FF;exitX=0.423;exitY=-0.17;exitDx=0;exitDy=0;exitPerimeter=0;" parent="1" edge="1">
          <mxGeometry width="50" height="50" relative="1" as="geometry">
            <mxPoint x="692.5664900000002" y="1018.5999999999999" as="sourcePoint" />
            <mxPoint x="692" y="792" as="targetPoint" />
          </mxGeometry>
        </mxCell>
        <mxCell id="0GXY6gjPffuvIRgVKfaw-231" value="" style="shape=partialRectangle;whiteSpace=wrap;html=1;top=0;bottom=0;fillColor=none;rounded=1;shadow=0;glass=1;comic=0;labelBackgroundColor=#ffffff;strokeWidth=2;fontSize=6;fontColor=#3333FF;align=center;rotation=-90;" parent="1" vertex="1">
          <mxGeometry x="664.35" y="828.91" width="74" height="16.06" as="geometry" />
        </mxCell>
        <mxCell id="0GXY6gjPffuvIRgVKfaw-232" value="" style="shape=partialRectangle;whiteSpace=wrap;html=1;top=0;bottom=0;fillColor=none;rounded=1;shadow=0;glass=1;comic=0;labelBackgroundColor=#ffffff;strokeWidth=2;fontSize=6;fontColor=#3333FF;align=center;rotation=90;" parent="1" vertex="1">
          <mxGeometry x="667.03" y="976" width="68.65" height="20" as="geometry" />
        </mxCell>
        <mxCell id="0GXY6gjPffuvIRgVKfaw-233" value="" style="verticalLabelPosition=bottom;html=1;verticalAlign=top;strokeWidth=1;align=center;outlineConnect=0;dashed=0;outlineConnect=0;shape=mxgraph.aws3d.application_server;fillColor=#ECECEC;strokeColor=#5E5E5E;aspect=fixed;fontSize=1;fontColor=#000000;" parent="1" vertex="1">
          <mxGeometry x="450.96999999999997" y="814.73" width="48.03" height="48.42" as="geometry" />
        </mxCell>
        <mxCell id="0GXY6gjPffuvIRgVKfaw-234" value="" style="shape=partialRectangle;whiteSpace=wrap;html=1;right=0;top=0;bottom=0;fillColor=none;routingCenterX=-0.5;rounded=1;shadow=0;glass=1;comic=0;labelBackgroundColor=#ffffff;strokeWidth=2;fontSize=6;fontColor=#3333FF;align=center;" parent="1" vertex="1">
          <mxGeometry x="471" y="870" width="30" height="19.01" as="geometry" />
        </mxCell>
        <mxCell id="0GXY6gjPffuvIRgVKfaw-235" value="10.32.243.57" style="text;html=1;" parent="1" vertex="1">
          <mxGeometry x="436" y="853.94" width="100" height="30" as="geometry" />
        </mxCell>
        <mxCell id="0GXY6gjPffuvIRgVKfaw-236" value="" style="verticalLabelPosition=bottom;html=1;verticalAlign=top;strokeWidth=1;align=center;outlineConnect=0;dashed=0;outlineConnect=0;shape=mxgraph.aws3d.arrowSE;fillColor=#000000;aspect=fixed;rounded=1;shadow=0;glass=1;comic=0;labelBackgroundColor=#ffffff;fontSize=6;fontColor=#3333FF;" parent="1" vertex="1">
          <mxGeometry x="511.25" y="840.69" width="58.75" height="33.57" as="geometry" />
        </mxCell>
        <mxCell id="0GXY6gjPffuvIRgVKfaw-237" value="Hadoop集群" style="text;html=1;strokeColor=none;fillColor=none;align=center;verticalAlign=middle;whiteSpace=wrap;rounded=0;fontSize=1;fontColor=#000000;" parent="1" vertex="1">
          <mxGeometry x="752.69" y="1080" width="40" height="60" as="geometry" />
        </mxCell>
        <mxCell id="0GXY6gjPffuvIRgVKfaw-238" value="大数据平台服务" style="text;html=1;strokeColor=none;fillColor=none;align=center;verticalAlign=middle;whiteSpace=wrap;rounded=0;fontSize=1;fontColor=#000000;" parent="1" vertex="1">
          <mxGeometry x="649.98" y="863.1500000000001" width="40" height="60" as="geometry" />
        </mxCell>
        <mxCell id="0GXY6gjPffuvIRgVKfaw-239" value="10.32.241.39" style="text;html=1;" parent="1" vertex="1">
          <mxGeometry x="155.86" y="1127" width="100" height="30" as="geometry" />
        </mxCell>
      </root>
    </mxGraphModel>
  </diagram>
</mxfile>
